<svg width="28" height="18" viewBox="0 0 28 18" fill="none" xmlns="http://www.w3.org/2000/svg">
<path d="M8.14401 0C8.9522 0 9.69821 0.062168 10.3821 0.248672C11.0659 0.373008 11.6254 0.62168 12.1228 0.932521C12.6201 1.24336 12.9931 1.67854 13.2418 2.23805C13.4905 2.79756 13.6148 3.48141 13.6148 4.22743C13.6148 5.09778 13.4283 5.8438 12.9931 6.40331C12.6201 6.96282 11.9984 7.46016 11.2524 7.83317C12.3093 8.14401 13.1175 8.70352 13.6148 9.44954C14.1121 10.1956 14.423 11.1281 14.423 12.1849C14.423 13.0553 14.2365 13.8013 13.9256 14.423C13.6148 15.0447 13.1175 15.6042 12.5579 15.9772C11.9984 16.3502 11.3146 16.661 10.5686 16.8475C9.82255 17.034 9.07653 17.1584 8.33052 17.1584H0V0H8.14401ZM7.64667 6.96282C8.33052 6.96282 8.89003 6.77632 9.3252 6.46548C9.76038 6.15464 9.94689 5.59512 9.94689 4.91127C9.94689 4.53827 9.88472 4.16526 9.76038 3.91659C9.63604 3.66791 9.44954 3.48141 9.20087 3.29491C8.9522 3.17057 8.70352 3.04623 8.39268 2.98407C8.08184 2.9219 7.771 2.9219 7.39799 2.9219H3.79225V6.96282H7.64667ZM7.83317 14.2986C8.20618 14.2986 8.57919 14.2365 8.89003 14.1743C9.20087 14.1121 9.51171 13.9878 9.76038 13.8013C10.0091 13.6148 10.1956 13.4283 10.3821 13.1175C10.5064 12.8066 10.6307 12.4336 10.6307 11.9984C10.6307 11.1281 10.3821 10.5064 9.88472 10.0712C9.38737 9.69821 8.70352 9.51171 7.89534 9.51171H3.79225V14.2986H7.83317ZM19.8316 14.2365C20.3289 14.7338 21.075 14.9825 22.0696 14.9825C22.7535 14.9825 23.3752 14.796 23.8725 14.4852C24.3699 14.1121 24.6807 13.7391 24.805 13.3661H27.8513C27.3539 14.8582 26.6079 15.915 25.6132 16.5989C24.6185 17.2205 23.4373 17.5936 22.0075 17.5936C21.0128 17.5936 20.1424 17.4071 19.3343 17.0962C18.5261 16.7854 17.9044 16.3502 17.3449 15.7285C16.7854 15.169 16.3502 14.4852 16.1015 13.677C15.7907 12.8688 15.6663 11.9984 15.6663 11.0037C15.6663 10.0712 15.7907 9.20087 16.1015 8.39268C16.4124 7.5845 16.8475 6.90065 17.407 6.27897C17.9666 5.71946 18.6504 5.22212 19.3964 4.91127C20.2046 4.60043 21.0128 4.41393 22.0075 4.41393C23.0643 4.41393 23.9969 4.60043 24.805 5.03561C25.6132 5.47079 26.2349 5.96813 26.7323 6.71415C27.2296 7.398 27.6026 8.20618 27.8513 9.07653C27.9756 9.94689 28.0378 10.8172 27.9756 11.8119H18.9612C18.9612 12.8066 19.3343 13.7391 19.8316 14.2365ZM23.7482 7.70884C23.313 7.27366 22.6292 7.02499 21.821 7.02499C21.2615 7.02499 20.8263 7.14932 20.4533 7.33583C20.0803 7.52233 19.8316 7.771 19.5829 8.01968C19.3343 8.26835 19.2099 8.57919 19.1478 8.89003C19.0856 9.20087 19.0234 9.44954 19.0234 9.69821H24.6185C24.4942 8.76569 24.1834 8.14401 23.7482 7.70884ZM18.2774 1.18119H25.2402V2.85973H18.2774V1.18119Z" fill="white"/>
</svg>
