<svg width="18" height="18" viewBox="0 0 18 18" fill="none" xmlns="http://www.w3.org/2000/svg">
<path d="M2.19422 0.995117C2.75469 0.995117 3.19354 1.17181 3.5124 1.52354C3.83126 1.87527 4.00219 2.31905 4.0252 2.85075C4.0252 3.37589 3.84605 3.81884 3.48528 4.17879C3.1245 4.53792 2.63142 4.7179 2.00767 4.7179H1.98548C1.37652 4.7179 0.894124 4.53792 0.534995 4.17879C0.179975 3.81884 0 3.37589 0 2.85075C0 2.31083 0.19559 1.86705 0.590056 1.51779C0.984523 1.16934 1.52034 0.995117 2.19422 0.995117ZM0.235858 6.19221H4.08437V17.0039H0.235858V6.19221ZM18 10.805V17.0039H14.1523V11.2217C14.1523 10.4861 14.0011 9.89691 13.7003 9.44821C13.4012 9.00361 12.9007 8.7809 12.1939 8.7809C11.6557 8.7809 11.2234 8.91732 10.9012 9.1918C10.5783 9.46464 10.3441 9.76625 10.2027 10.0974C10.1567 10.2174 10.1279 10.3497 10.1123 10.4968C10.0975 10.6415 10.0909 10.7984 10.0909 10.9636V17.0047H6.21942C6.23586 15.1754 6.2449 13.4972 6.2449 11.9753V10.0531V8.30672C6.2449 7.77501 6.23915 7.32137 6.23011 6.94499C6.22517 6.57189 6.21942 6.31959 6.21942 6.19221H10.0909V7.72324L10.0696 7.76761H10.0909V7.72324C10.2109 7.53504 10.3646 7.33863 10.552 7.13236C10.7418 6.92691 10.9686 6.73461 11.2448 6.5571C11.5184 6.38123 11.848 6.23659 12.2342 6.11907C12.6229 6.0032 13.0651 5.94567 13.5688 5.94567C14.195 5.94567 14.7802 6.041 15.3258 6.23248C15.8699 6.42396 16.3375 6.72392 16.7352 7.13318C17.1305 7.53997 17.4404 8.04621 17.6655 8.65106C17.8899 9.25426 18 9.97252 18 10.805Z" fill="#B65AFE"/>
</svg>
