<svg width="42" height="36" viewBox="0 0 42 36" fill="none" xmlns="http://www.w3.org/2000/svg">
<path d="M2.81261 7.46502C4.68749 5.16056 7.23437 3.3401 10.453 2.00415C13.6716 0.668199 17.1874 0.000305176 21 0.000305176C24.8125 0.000305176 28.3282 0.668199 31.5469 2.00415C34.7656 3.3401 37.3124 5.16023 39.1875 7.46502C41.0626 9.76965 42 12.2812 42 15C42 17.3436 41.2932 19.5396 39.879 21.5864C38.4648 23.6332 36.5315 25.3522 34.0781 26.7427C34.2502 27.3675 34.4533 27.9611 34.6877 28.5241C34.9221 29.0865 35.133 29.5476 35.3205 29.9071C35.5081 30.2662 35.7618 30.6648 36.0824 31.102C36.4024 31.5397 36.6446 31.8484 36.8087 32.0282C36.9727 32.208 37.2422 32.5044 37.6174 32.9187C37.9921 33.3325 38.2345 33.6025 38.3437 33.7276C38.3596 33.7355 38.422 33.8054 38.5313 33.9389C38.6406 34.0714 38.6954 34.1374 38.6954 34.1374L38.836 34.3484C38.9143 34.465 38.9494 34.5394 38.9417 34.5703C38.9338 34.6018 38.9494 34.6799 38.9885 34.8046C39.0276 34.9299 39.0236 35.0237 38.9768 35.0861V35.1096C38.9143 35.3751 38.7894 35.5901 38.6019 35.7541C38.4144 35.9177 38.2031 35.9997 37.969 35.9997H37.8517C36.8358 35.8744 35.9453 35.7031 35.1798 35.4842C31.0859 34.4375 27.492 32.5468 24.3984 29.8122C23.2266 29.9372 22.0938 29.9996 21.0002 29.9996C17.1877 29.9996 13.6718 29.3318 10.4532 27.9955C7.23454 26.6593 4.68766 24.8395 2.81277 22.535C0.937565 20.2305 8.39233e-05 17.7187 8.39233e-05 14.9999C0 12.2816 0.937401 9.76965 2.81261 7.46502ZM5.44938 20.9767C7.08267 22.8202 9.28575 24.2853 12.0591 25.371C14.8325 26.4565 17.8131 26.9999 21.0006 26.9999C21.9536 26.9999 22.9691 26.9375 24.0472 26.8122L25.3832 26.672L26.391 27.5628C28.3126 29.2505 30.4613 30.5862 32.8362 31.5706C32.1176 30.3053 31.5707 28.9613 31.1956 27.5398L30.5628 25.2895L32.6018 24.118C34.6331 22.9611 36.2071 21.5902 37.3245 20.0041C38.4418 18.4185 39.0001 16.7502 39.0001 15.0003C39.0001 12.8596 38.1837 10.8676 36.551 9.02385C34.9178 7.18025 32.715 5.71533 29.9415 4.62943C27.1679 3.54344 24.1878 3 21.0001 3C17.8126 3 14.8326 3.5432 12.0592 4.6291C9.28591 5.71508 7.08283 7.17992 5.44946 9.02352C3.81667 10.8673 3.00035 12.8594 3.00035 14.9999C3.00035 17.1405 3.81667 19.133 5.44938 20.9767Z" fill="white"/>
</svg>
