<?xml version="1.0" encoding="utf-8"?><svg viewBox="0 0 56 56" xmlns="http://www.w3.org/2000/svg" xmlns:xlink="http://www.w3.org/1999/xlink"><style>:root>svg{display:none}:root>svg:target{display:block}</style><svg viewBox="0 0 28 18" id="behance-icon" xmlns="http://www.w3.org/2000/svg"><path d="M8.144 0c.808 0 1.554.062 2.238.249a4.86 4.86 0 011.74.684c.498.31.871.746 1.12 1.305.248.56.373 1.243.373 1.99 0 .87-.187 1.616-.622 2.175-.373.56-.995 1.057-1.74 1.43 1.056.311 1.864.87 2.362 1.617.497.746.808 1.678.808 2.735 0 .87-.187 1.616-.497 2.238a4.135 4.135 0 01-1.368 1.554 6.438 6.438 0 01-1.99.87c-.745.187-1.491.311-2.237.311H0V0h8.144zm-.497 6.963c.684 0 1.243-.187 1.678-.498.435-.31.622-.87.622-1.554 0-.373-.062-.746-.187-.994-.124-.25-.31-.436-.56-.622-.248-.124-.496-.249-.807-.31-.311-.063-.622-.063-.995-.063H3.792v4.04h3.855zm.186 7.336c.373 0 .746-.063 1.057-.125a2.18 2.18 0 00.87-.373c.25-.186.436-.373.622-.684.124-.31.249-.683.249-1.119 0-.87-.249-1.492-.746-1.927-.498-.373-1.181-.56-1.99-.56H3.792V14.3h4.041zm11.999-.063c.497.498 1.243.746 2.238.746a3.4 3.4 0 001.802-.497c.498-.373.809-.746.933-1.119h3.046c-.497 1.492-1.243 2.549-2.238 3.233-.994.622-2.176.995-3.605.995a7.308 7.308 0 01-2.674-.498 4.967 4.967 0 01-1.99-1.367 4.933 4.933 0 01-1.242-2.052c-.311-.808-.436-1.679-.436-2.673 0-.933.125-1.803.436-2.611a6.705 6.705 0 011.305-2.114c.56-.56 1.243-1.057 1.99-1.368a6.977 6.977 0 012.61-.497c1.057 0 1.99.186 2.798.622.808.435 1.43.932 1.927 1.678.498.684.87 1.492 1.12 2.363.124.87.186 1.74.124 2.735H18.96c0 .995.373 1.927.87 2.425zm3.916-6.527c-.435-.435-1.119-.684-1.927-.684-.56 0-.995.124-1.368.31-.373.187-.621.436-.87.685-.249.248-.373.56-.435.87-.062.31-.125.56-.125.808h5.596c-.125-.932-.436-1.554-.87-1.99zm-5.47-6.528h6.962V2.86h-6.963V1.18z"/></svg><svg viewBox="0 0 19 8" id="input-arr-icon" xmlns="http://www.w3.org/2000/svg"><path d="M18.42 4.354a.5.5 0 000-.708L15.238.464a.5.5 0 10-.707.708L17.359 4l-2.828 2.828a.5.5 0 10.707.708l3.182-3.182zM.167 4.5h17.9v-1H.167v1z"/></svg><svg  viewBox="0 0 18 18" id="linkedin-icon" xmlns="http://www.w3.org/2000/svg"><path d="M2.194.995c.56 0 1 .177 1.318.529.32.351.49.795.513 1.327 0 .525-.179.968-.54 1.328-.36.359-.854.539-1.477.539h-.023c-.608 0-1.09-.18-1.45-.54A1.82 1.82 0 010 2.852c0-.54.196-.984.59-1.333.395-.349.93-.523 1.604-.523zM.236 6.192h3.848v10.812H.236V6.192zM18 10.805v6.199h-3.848v-5.782c0-.736-.15-1.325-.452-1.774-.299-.444-.8-.667-1.506-.667-.538 0-.97.136-1.293.41a2.46 2.46 0 00-.698.907c-.046.12-.075.252-.09.399a4.625 4.625 0 00-.022.467v6.04H6.219c.017-1.829.026-3.507.026-5.029V8.307c0-.532-.006-.986-.015-1.362-.005-.373-.01-.625-.01-.753h3.87v1.531l-.02.045h.02v-.045c.12-.188.275-.384.462-.59.19-.206.417-.398.693-.576a3.95 3.95 0 01.99-.438c.388-.116.83-.173 1.334-.173.626 0 1.211.095 1.757.287a3.604 3.604 0 011.41.9c.395.407.704.913.93 1.518.224.603.334 1.322.334 2.154z"/></svg><svg fill="none" viewBox="0 0 42 36" id="message-icon" xmlns="http://www.w3.org/2000/svg"><path d="M2.813 7.465c1.874-2.304 4.421-4.125 7.64-5.46C13.672.667 17.187 0 21 0c3.813 0 7.328.668 10.547 2.004 3.219 1.336 5.765 3.156 7.64 5.461C41.063 9.77 42 12.281 42 15c0 2.344-.707 4.54-2.121 6.586-1.414 2.047-3.347 3.766-5.8 5.157.171.625.374 1.218.609 1.781.234.563.445 1.024.633 1.383.187.36.44.758.761 1.195.32.438.563.746.727.926l.808.89c.375.415.617.684.727.81.016.008.078.077.187.21l.164.2.141.21c.078.117.113.191.106.222-.008.032.007.11.047.235.039.125.035.219-.012.281v.024c-.063.265-.188.48-.375.644a.939.939 0 01-.633.246h-.117c-1.016-.126-1.907-.297-2.672-.516-4.094-1.047-7.688-2.937-10.782-5.672A32.051 32.051 0 0121 30c-3.812 0-7.328-.668-10.547-2.005-3.218-1.336-5.765-3.155-7.64-5.46S0 17.719 0 15c0-2.718.937-5.23 2.813-7.535zm2.636 13.512c1.634 1.843 3.837 3.308 6.61 4.394C14.833 26.456 17.813 27 21.001 27c.953 0 1.968-.063 3.046-.188l1.336-.14 1.008.89a23.108 23.108 0 006.445 4.009 16.814 16.814 0 01-1.64-4.031l-.633-2.25 2.039-1.172c2.031-1.157 3.605-2.528 4.723-4.114C38.441 18.42 39 16.75 39 15c0-2.14-.816-4.132-2.449-5.976-1.633-1.844-3.836-3.309-6.61-4.395C27.169 3.543 24.189 3 21.002 3c-3.188 0-6.168.543-8.942 1.63-2.773 1.085-4.976 2.55-6.61 4.394C3.817 10.867 3 12.859 3 15c0 2.14.817 4.133 2.45 5.977z" fill="#fff"/></svg><svg fill="none" viewBox="0 0 56 56" id="slider-arr-icon" xmlns="http://www.w3.org/2000/svg"><g filter="url(#efilter0_d)"><circle cx="28" cy="24" r="24" fill="#B65AFE"/></g><path d="M36.506 23.143L25.713 12.354a1.216 1.216 0 00-1.715 0 1.209 1.209 0 000 1.712L33.934 24 24 33.932a1.21 1.21 0 000 1.714 1.216 1.216 0 001.716 0l10.792-10.79a1.222 1.222 0 000-1.713z" fill="#fff"/><defs><filter id="efilter0_d" x="0" y="0" width="56" height="56" filterUnits="userSpaceOnUse" color-interpolation-filters="sRGB"><feFlood flood-opacity="0" result="BackgroundImageFix"/><feColorMatrix in="SourceAlpha" values="0 0 0 0 0 0 0 0 0 0 0 0 0 0 0 0 0 0 127 0"/><feOffset dy="4"/><feGaussianBlur stdDeviation="2"/><feColorMatrix values="0 0 0 0 0.6625 0 0 0 0 0.6625 0 0 0 0 0.6625 0 0 0 0.25 0"/><feBlend in2="BackgroundImageFix" result="effect1_dropShadow"/><feBlend in="SourceGraphic" in2="effect1_dropShadow" result="shape"/></filter></defs></svg></svg>